<svg width="197" height="192" viewBox="0 0 197 192" fill="none" xmlns="http://www.w3.org/2000/svg">
<path d="M196.005 174.919L177.917 10.487C177.726 8.97837 177.119 7.55259 176.164 6.36903C175.087 5.02601 173.768 3.89684 172.274 3.04004C170.571 2.04691 168.737 1.29729 166.825 0.813035C164.715 0.269687 162.544 -0.00349712 160.364 3.54542e-05H35.7194C33.5397 -0.00358178 31.3683 0.269603 29.2574 0.813035C27.3463 1.29738 25.5125 2.04699 23.8094 3.04004C22.3161 3.89684 20.9966 5.02601 19.9194 6.36903C18.9645 7.55259 18.3576 8.97837 18.1664 10.487L0.0784103 174.919C-0.163136 177.055 0.155653 179.217 1.00341 181.193C1.88171 183.194 3.20494 184.969 4.87241 186.382C6.70816 187.942 8.82229 189.141 11.1034 189.915C13.6666 190.791 16.3587 191.23 19.0674 191.215H177.016C179.725 191.23 182.417 190.791 184.98 189.915C187.262 189.141 189.376 187.942 191.211 186.382C192.879 184.969 194.202 183.194 195.08 181.193C195.928 179.217 196.247 177.055 196.005 174.919Z" fill="#F2F2F2"/>
<path d="M176.261 10.487C176.188 9.84265 176.022 9.21236 175.767 8.616C175.497 7.98416 175.148 7.38855 174.73 6.843C174.275 6.24862 173.759 5.70333 173.19 5.216C172.567 4.68018 171.898 4.20032 171.19 3.782C170.429 3.33186 169.635 2.94007 168.815 2.61C167.959 2.26475 167.08 1.97744 166.185 1.75C165.261 1.51439 164.323 1.33704 163.376 1.219C162.41 1.09797 161.438 1.03686 160.464 1.036H35.6363C34.6628 1.03686 33.6903 1.09797 32.7243 1.219C31.7778 1.33704 30.8396 1.51439 29.9153 1.75C29.0204 1.97744 28.1417 2.26475 27.2853 2.61C26.4651 2.94006 25.6712 3.33185 24.9103 3.782C24.2028 4.2003 23.5335 4.68016 22.9103 5.216C22.3418 5.70333 21.8257 6.24861 21.3703 6.843C20.9522 7.38856 20.6039 7.98416 20.3333 8.616C20.0786 9.21236 19.9122 9.84265 19.8393 10.487L2.12629 174.919C1.9231 176.806 2.20357 178.714 2.94129 180.463C3.31812 181.356 3.80055 182.201 4.37829 182.979C4.98872 183.8 5.6887 184.551 6.46529 185.217C7.28339 185.919 8.17021 186.537 9.11229 187.061C10.0936 187.607 11.1225 188.064 12.1863 188.424C13.294 188.8 14.4314 189.083 15.5863 189.269C16.7869 189.463 18.0011 189.56 19.2173 189.56H176.878C178.094 189.56 179.309 189.463 180.509 189.269C181.664 189.083 182.802 188.8 183.909 188.424C184.973 188.064 186.002 187.607 186.983 187.061C187.926 186.537 188.813 185.919 189.631 185.217C190.408 184.551 191.108 183.8 191.718 182.979C192.296 182.201 192.778 181.356 193.155 180.463C193.893 178.714 194.173 176.806 193.97 174.919L176.261 10.487ZM177.925 10.487L196.013 174.919C196.247 177.017 195.942 179.139 195.127 181.086C194.711 182.08 194.177 183.02 193.536 183.886C192.859 184.801 192.082 185.638 191.219 186.38C190.31 187.163 189.324 187.851 188.276 188.435C187.185 189.044 186.04 189.552 184.856 189.953C183.622 190.372 182.355 190.686 181.068 190.893C179.731 191.108 178.379 191.216 177.024 191.215H19.0753C18.3933 191.215 17.716 191.188 17.0433 191.135C16.3706 191.082 15.7063 191.002 15.0503 190.896C14.3943 190.79 13.7483 190.658 13.1123 190.501C12.4763 190.344 11.8533 190.161 11.2433 189.953C10.634 189.745 10.0423 189.514 9.46829 189.259C8.89429 189.004 8.34096 188.727 7.80829 188.427C7.27496 188.128 6.76396 187.807 6.27529 187.465C5.79224 187.128 5.32696 186.765 4.88129 186.38C4.44696 186.005 4.03335 185.606 3.64229 185.186C3.26156 184.778 2.90432 184.349 2.57229 183.9C2.24814 183.461 1.95029 183.003 1.68029 182.529C1.41497 182.063 1.17853 181.58 0.972293 181.085C0.768654 180.596 0.59598 180.095 0.455293 179.585C0.176392 178.575 0.0271934 177.533 0.0112936 176.485C0.00310725 175.96 0.0278223 175.434 0.0852935 174.912L18.1733 10.487C18.2123 10.135 18.2775 9.78634 18.3683 9.444C18.4614 9.09384 18.579 8.75066 18.7203 8.417C18.8651 8.07318 19.0321 7.73914 19.2203 7.417C19.4185 7.07917 19.6369 6.75358 19.8743 6.442C20.1237 6.11657 20.3907 5.8051 20.6743 5.509C20.9616 5.20633 21.2703 4.91267 21.6003 4.628C21.9303 4.34333 22.2803 4.069 22.6503 3.805C23.0203 3.53833 23.4093 3.285 23.8173 3.045C24.2253 2.805 24.6483 2.576 25.0863 2.358C25.5243 2.142 25.9763 1.93967 26.4423 1.751C26.9083 1.56233 27.386 1.388 27.8753 1.228C28.3646 1.068 28.8646 0.923 29.3753 0.793C29.886 0.663 30.403 0.547 30.9263 0.445C31.449 0.348333 31.9766 0.266667 32.5093 0.2C33.042 0.133333 33.5766 0.0833335 34.1133 0.0500002C34.65 0.0166668 35.1876 1.66437e-07 35.7263 1.66437e-07H160.371C161.452 -0.000121693 162.532 0.0666727 163.604 0.2C164.655 0.330199 165.697 0.526252 166.723 0.787C167.717 1.03889 168.693 1.35727 169.644 1.74C170.555 2.10601 171.437 2.54059 172.282 3.04C173.07 3.50388 173.814 4.03627 174.508 4.631C175.14 5.1722 175.714 5.77781 176.22 6.438C176.686 7.04402 177.074 7.70581 177.375 8.408C177.658 9.07062 177.843 9.77099 177.924 10.487H177.925Z" fill="#4C3F37"/>
<path d="M157.049 41.5732L155.641 23.5013C155.583 22.8794 155.353 22.286 154.976 21.7883C154.553 21.2282 154.025 20.7552 153.423 20.3953C152.734 19.9783 151.989 19.6633 151.21 19.4603C150.346 19.231 149.457 19.1157 148.564 19.1173H121.622C120.74 19.1141 119.861 19.2295 119.01 19.4603C118.259 19.6601 117.545 19.9759 116.892 20.3963C116.327 20.7545 115.845 21.229 115.479 21.7883C115.148 22.2978 114.977 22.8941 114.987 23.5013L115.401 41.5732C115.422 42.2185 115.625 42.8447 115.987 43.3792C116.391 43.9716 116.911 44.4755 117.516 44.8602C118.208 45.3063 118.965 45.6436 119.76 45.8602C120.648 46.1069 121.566 46.2307 122.489 46.2282H150.428C151.338 46.2325 152.244 46.1086 153.12 45.8602C153.884 45.6475 154.608 45.3096 155.263 44.8602C155.828 44.4764 156.3 43.9702 156.643 43.3792C156.955 42.831 157.096 42.2022 157.049 41.5732Z" fill="white"/>
<path d="M153.947 23.5012C153.929 23.2791 153.88 23.0608 153.799 22.8532C153.714 22.6346 153.602 22.4276 153.465 22.2372C153.316 22.0306 153.146 21.8405 152.957 21.6702C152.749 21.4835 152.525 21.3162 152.287 21.1702C152.031 21.0128 151.764 20.8757 151.487 20.7602C151.197 20.6396 150.898 20.5394 150.594 20.4602C150.279 20.3775 149.959 20.3154 149.636 20.2742C149.304 20.2315 148.97 20.2101 148.636 20.2102H121.657C121.326 20.2102 120.996 20.2316 120.668 20.2742C120.351 20.315 120.037 20.3772 119.729 20.4602C119.434 20.5388 119.146 20.639 118.866 20.7602C118.601 20.875 118.347 21.0122 118.106 21.1702C117.883 21.3157 117.676 21.4832 117.487 21.6702C117.315 21.8407 117.163 22.0311 117.036 22.2372C116.918 22.4291 116.826 22.6364 116.764 22.8532C116.704 23.0638 116.677 23.2823 116.682 23.5012L117.138 41.5732C117.144 41.8047 117.184 42.0341 117.256 42.2542C117.331 42.4835 117.436 42.7019 117.568 42.9042C117.712 43.1223 117.879 43.3235 118.068 43.5042C118.272 43.7024 118.495 43.8806 118.734 44.0362C118.991 44.2036 119.261 44.3494 119.542 44.4722C119.837 44.6015 120.141 44.7092 120.451 44.7942C120.773 44.883 121.102 44.9498 121.433 44.9942C121.773 45.0395 122.117 45.0622 122.46 45.0622H150.348C150.689 45.0624 151.03 45.0397 151.368 44.9942C151.693 44.9503 152.014 44.8834 152.33 44.7942C152.63 44.7098 152.923 44.6022 153.207 44.4722C153.474 44.3501 153.73 44.2042 153.971 44.0362C154.193 43.881 154.398 43.7026 154.583 43.5042C154.752 43.3228 154.898 43.1213 155.018 42.9042C155.13 42.7001 155.213 42.4813 155.265 42.2542C155.315 42.0309 155.332 41.8014 155.315 41.5732L153.947 23.5012ZM155.641 23.5012L157.049 41.5732C157.073 41.8774 157.051 42.1834 156.985 42.4812C156.917 42.784 156.807 43.0759 156.658 43.3482C156.499 43.6376 156.305 43.9063 156.08 44.1482C155.834 44.4131 155.56 44.6511 155.264 44.8582C154.943 45.0829 154.602 45.278 154.245 45.4412C153.867 45.6148 153.476 45.7586 153.075 45.8712C152.654 45.99 152.225 46.0789 151.791 46.1372C151.34 46.198 150.885 46.2284 150.429 46.2282H122.487C122.028 46.2282 121.57 46.1978 121.115 46.1372C120.672 46.0783 120.234 45.9895 119.804 45.8712C119.39 45.7577 118.984 45.614 118.591 45.4412C118.216 45.277 117.856 45.082 117.514 44.8582C117.196 44.6506 116.899 44.4128 116.626 44.1482C116.377 43.907 116.156 43.6386 115.967 43.3482C115.792 43.0784 115.652 42.787 115.552 42.4812C115.456 42.1877 115.404 41.8818 115.396 41.5732L114.987 23.5012C114.981 23.2095 115.018 22.9186 115.099 22.6382C115.182 22.3492 115.305 22.0729 115.463 21.8172C115.633 21.5428 115.834 21.2894 116.063 21.0622C116.315 20.8128 116.592 20.5893 116.889 20.3952C117.212 20.1849 117.551 20.0026 117.905 19.8502C118.278 19.6887 118.662 19.555 119.054 19.4502C119.465 19.3392 119.882 19.256 120.304 19.2012C120.741 19.1449 121.181 19.1168 121.622 19.1172H148.564C149.006 19.1171 149.448 19.1452 149.887 19.2012C150.317 19.2559 150.743 19.3384 151.162 19.4482C151.567 19.5538 151.964 19.6875 152.351 19.8482C152.721 20.0019 153.078 20.1845 153.419 20.3942C153.736 20.589 154.035 20.8122 154.312 21.0612C154.565 21.2879 154.792 21.541 154.991 21.8162C155.174 22.0695 155.324 22.3451 155.438 22.6362C155.547 22.9131 155.616 23.2045 155.641 23.5012Z" fill="#4C3F37"/>
<path d="M88.2048 0L85.5758 191.217H44.0098L55.4038 0H88.2048Z" fill="#4C3F37"/>
</svg>
