<svg width="134" height="246" viewBox="0 0 134 246" fill="none" xmlns="http://www.w3.org/2000/svg">
<path d="M14.6789 0H118.654C122.548 0 126.281 1.55085 129.034 4.31139C131.787 7.07192 133.333 10.816 133.333 14.72V230.613C133.333 234.517 131.787 238.261 129.034 241.022C126.281 243.782 122.548 245.333 118.654 245.333H14.6789C10.7858 245.333 7.05218 243.782 4.29935 241.022C1.54652 238.261 0 234.517 0 230.613V14.72C0 10.816 1.54652 7.07192 4.29935 4.31139C7.05218 1.55085 10.7858 0 14.6789 0Z" fill="#FAFAFA"/>
<path d="M132.721 223.254H0.611111V222.028H132.721V223.254Z" fill="#4C3F37"/>
<path d="M14.6789 1.22667C11.1102 1.22667 7.68774 2.64828 5.16431 5.17877C2.64089 7.70926 1.22324 11.1413 1.22324 14.72V230.613C1.22324 234.192 2.64089 237.624 5.16431 240.155C7.68774 242.685 11.1102 244.107 14.6789 244.107H118.654C122.223 244.107 125.646 242.685 128.169 240.155C130.692 237.624 132.11 234.192 132.11 230.613V14.72C132.11 11.1413 130.692 7.70926 128.169 5.17877C125.646 2.64828 122.223 1.22667 118.654 1.22667H14.6789ZM14.6789 0H118.654C122.548 0 126.281 1.55085 129.034 4.31139C131.787 7.07192 133.333 10.816 133.333 14.72V230.613C133.333 234.517 131.787 238.261 129.034 241.022C126.281 243.782 122.548 245.333 118.654 245.333H14.6789C10.7858 245.333 7.05218 243.782 4.29935 241.022C1.54652 238.261 0 234.517 0 230.613V14.72C0 10.816 1.54652 7.07192 4.29935 4.31139C7.05218 1.55085 10.7858 0 14.6789 0Z" fill="#4C3F37"/>
<path d="M106.091 35.6328H27.2476C23.7918 35.6328 20.9902 38.4449 20.9902 41.9137V89.6482C20.9902 93.1171 23.7918 95.9291 27.2476 95.9291H106.091C109.547 95.9291 112.348 93.1171 112.348 89.6482V41.9137C112.348 38.4449 109.547 35.6328 106.091 35.6328Z" fill="#F2F2F2"/>
<path d="M27.2476 36.2609C25.7545 36.2626 24.3231 36.8587 23.2673 37.9184C22.2115 38.9781 21.6176 40.415 21.616 41.9137V89.6482C21.6176 91.1469 22.2115 92.5838 23.2673 93.6435C24.3231 94.7033 25.7545 95.2994 27.2476 95.301H106.091C107.584 95.2994 109.015 94.7033 110.071 93.6435C111.127 92.5838 111.721 91.1469 111.723 89.6482V41.9137C111.721 40.415 111.127 38.9781 110.071 37.9184C109.015 36.8587 107.584 36.2626 106.091 36.2609H27.2476ZM27.2476 35.6328H106.091C107.75 35.6328 109.342 36.2945 110.516 37.4724C111.689 38.6503 112.348 40.2479 112.348 41.9137V89.6482C112.348 90.4731 112.186 91.2898 111.872 92.0518C111.557 92.8139 111.097 93.5063 110.516 94.0895C109.934 94.6727 109.245 95.1354 108.485 95.451C107.726 95.7667 106.913 95.9291 106.091 95.9291H27.2476C26.4259 95.9291 25.6122 95.7667 24.853 95.451C24.0938 95.1354 23.404 94.6727 22.823 94.0895C22.2419 93.5063 21.781 92.8139 21.4666 92.0518C21.1521 91.2898 20.9902 90.4731 20.9902 89.6482V41.9137C20.9902 40.2479 21.6495 38.6503 22.823 37.4724C23.9965 36.2945 25.5881 35.6328 27.2476 35.6328Z" fill="#4C3F37"/>
<path d="M44.7746 44.4297H34.7627C33.3804 44.4297 32.2598 45.5545 32.2598 46.942V56.9914C32.2598 58.3789 33.3804 59.5038 34.7627 59.5038H44.7746C46.1569 59.5038 47.2775 58.3789 47.2775 56.9914V46.942C47.2775 45.5545 46.1569 44.4297 44.7746 44.4297Z" fill="white"/>
<path d="M34.7627 45.0578C34.2649 45.0578 33.7874 45.2563 33.4353 45.6097C33.0833 45.963 32.8855 46.4423 32.8855 46.942V56.9914C32.8855 57.4912 33.0833 57.9704 33.4353 58.3238C33.7874 58.6772 34.2649 58.8757 34.7627 58.8757H44.7746C45.2724 58.8757 45.7499 58.6772 46.102 58.3238C46.454 57.9704 46.6518 57.4912 46.6518 56.9914V46.942C46.6518 46.4423 46.454 45.963 46.102 45.6097C45.7499 45.2563 45.2724 45.0578 44.7746 45.0578H34.7627ZM34.7627 44.4297H44.7746C45.4384 44.4297 46.075 44.6944 46.5444 45.1655C47.0138 45.6367 47.2775 46.2757 47.2775 46.942V56.9914C47.2775 57.6577 47.0138 58.2968 46.5444 58.7679C46.075 59.2391 45.4384 59.5038 44.7746 59.5038H34.7627C34.0989 59.5038 33.4623 59.2391 32.9929 58.7679C32.5235 58.2968 32.2598 57.6577 32.2598 56.9914V46.942C32.2598 46.2757 32.5235 45.6367 32.9929 45.1655C33.4623 44.6944 34.0989 44.4297 34.7627 44.4297Z" fill="#4C3F37"/>
<path d="M20.9902 69.5469H112.348V82.1086H20.9902V69.5469Z" fill="#4C3F37"/>
<path d="M91.5549 131.555C95.4823 131.555 98.666 134.738 98.666 138.666V188.444C98.666 192.371 95.4823 195.555 91.5549 195.555H41.7771C37.8498 195.555 34.666 192.371 34.666 188.444V138.666C34.666 134.738 37.8498 131.555 41.7771 131.555H91.5549ZM45.4091 156.103V172.444H48.7945V167.117H51.7285C55.4971 167.117 57.6643 164.883 57.6643 161.61C57.6643 158.383 55.5422 156.104 51.8188 156.103H45.4091ZM62.6521 156.103L56.9872 172.444H60.6434L61.8848 168.674H67.798L69.0167 172.444H72.6504L67.008 156.103H62.6521ZM71.8379 156.103L77.7962 166.621V172.444H81.1816V166.621L87.14 156.103H83.3257L79.5792 163.145H79.4212L75.6521 156.103H71.8379ZM64.8865 159.782L66.9403 166.034H62.7424L64.7737 159.782H64.8865ZM51.1868 158.879C53.1949 158.88 54.166 159.985 54.166 161.61C54.166 163.258 53.1949 164.386 51.1868 164.386H48.7945V158.879H51.1868Z" fill="#4C3F37"/>
</svg>
