<svg width="178" height="118" viewBox="0 0 178 118" fill="none" xmlns="http://www.w3.org/2000/svg">
<path d="M165.601 0H12.1766C5.45163 0 0 5.47208 0 12.2222V105.111C0 111.861 5.45163 117.333 12.1766 117.333H165.601C172.326 117.333 177.778 111.861 177.778 105.111V12.2222C177.778 5.47208 172.326 0 165.601 0Z" fill="#F2F2F2"/>
<path d="M12.1766 1.22222C9.27107 1.22546 6.4855 2.38542 4.431 4.44762C2.37651 6.50982 1.22088 9.30583 1.21766 12.2222V105.111C1.22088 108.028 2.37651 110.824 4.431 112.886C6.4855 114.948 9.27107 116.108 12.1766 116.111H165.601C168.507 116.108 171.292 114.948 173.347 112.886C175.401 110.824 176.557 108.028 176.56 105.111V12.2222C176.557 9.30583 175.401 6.50982 173.347 4.44762C171.292 2.38542 168.507 1.22546 165.601 1.22222H12.1766ZM12.1766 0H165.601C168.831 0 171.928 1.28769 174.211 3.57981C176.495 5.87192 177.778 8.98069 177.778 12.2222V105.111C177.778 106.716 177.463 108.305 176.851 109.788C176.239 111.271 175.342 112.619 174.211 113.754C173.081 114.888 171.738 115.789 170.261 116.403C168.784 117.017 167.2 117.333 165.601 117.333H12.1766C10.5775 117.333 8.99412 117.017 7.51679 116.403C6.03946 115.789 4.69713 114.888 3.56643 113.754C2.43573 112.619 1.53881 111.271 0.926885 109.788C0.314956 108.305 0 106.716 0 105.111V12.2222C0 8.98069 1.28288 5.87192 3.56643 3.57981C5.84998 1.28769 8.94714 0 12.1766 0Z" fill="#4C3F37"/>
<path d="M46.2828 17.1172H26.8003C24.1103 17.1172 21.9297 19.306 21.9297 22.0061V41.5616C21.9297 44.2617 24.1103 46.4505 26.8003 46.4505H46.2828C48.9728 46.4505 51.1534 44.2617 51.1534 41.5616V22.0061C51.1534 19.306 48.9728 17.1172 46.2828 17.1172Z" fill="white"/>
<path d="M26.8003 18.3394C25.8315 18.3394 24.9023 18.7257 24.2173 19.4134C23.5322 20.101 23.1473 21.0336 23.1473 22.0061V41.5616C23.1473 42.5341 23.5322 43.4667 24.2173 44.1544C24.9023 44.842 25.8315 45.2283 26.8003 45.2283H46.2828C47.2516 45.2283 48.1808 44.842 48.8658 44.1544C49.5509 43.4667 49.9358 42.5341 49.9358 41.5616V22.0061C49.9358 21.0336 49.5509 20.101 48.8658 19.4134C48.1808 18.7257 47.2516 18.3394 46.2828 18.3394H26.8003ZM26.8003 17.1172H46.2828C47.5746 17.1172 48.8134 17.6323 49.7269 18.5491C50.6403 19.466 51.1534 20.7095 51.1534 22.0061V41.5616C51.1534 42.8582 50.6403 44.1018 49.7269 45.0186C48.8134 45.9354 47.5746 46.4505 46.2828 46.4505H26.8003C25.5085 46.4505 24.2697 45.9354 23.3563 45.0186C22.4428 44.1018 21.9297 42.8582 21.9297 41.5616V22.0061C21.9297 20.7095 22.4428 19.466 23.3563 18.5491C24.2697 17.6323 25.5085 17.1172 26.8003 17.1172Z" fill="#4C3F37"/>
<path d="M0 66H177.778V90.4444H0V66Z" fill="#4C3F37"/>
</svg>
