<svg width="134" height="246" viewBox="0 0 134 246" fill="none" xmlns="http://www.w3.org/2000/svg">
<path d="M14.6789 0H118.654C122.548 0 126.281 1.55085 129.034 4.31139C131.787 7.07192 133.333 10.816 133.333 14.72V230.613C133.333 234.517 131.787 238.261 129.034 241.022C126.281 243.782 122.548 245.333 118.654 245.333H14.6789C10.7858 245.333 7.05218 243.782 4.29935 241.022C1.54652 238.261 0 234.517 0 230.613V14.72C0 10.816 1.54652 7.07192 4.29935 4.31139C7.05218 1.55085 10.7858 0 14.6789 0Z" fill="#FAFAFA"/>
<path d="M132.721 223.254H0.611111V222.028H132.721V223.254Z" fill="#4C3F37"/>
<path d="M14.6789 1.22667C11.1102 1.22667 7.68774 2.64828 5.16431 5.17877C2.64089 7.70926 1.22324 11.1413 1.22324 14.72V230.613C1.22324 234.192 2.64089 237.624 5.16431 240.155C7.68774 242.685 11.1102 244.107 14.6789 244.107H118.654C122.223 244.107 125.646 242.685 128.169 240.155C130.692 237.624 132.11 234.192 132.11 230.613V14.72C132.11 11.1413 130.692 7.70926 128.169 5.17877C125.646 2.64828 122.223 1.22667 118.654 1.22667H14.6789ZM14.6789 0H118.654C122.548 0 126.281 1.55085 129.034 4.31139C131.787 7.07192 133.333 10.816 133.333 14.72V230.613C133.333 234.517 131.787 238.261 129.034 241.022C126.281 243.782 122.548 245.333 118.654 245.333H14.6789C10.7858 245.333 7.05218 243.782 4.29935 241.022C1.54652 238.261 0 234.517 0 230.613V14.72C0 10.816 1.54652 7.07192 4.29935 4.31139C7.05218 1.55085 10.7858 0 14.6789 0Z" fill="#4C3F37"/>
<path d="M59.6107 81.7812V84.6019H65.251V81.7812H59.6107Z" fill="#4C3F37"/>
<path d="M73.7092 81.7812H70.8885V84.6019H73.7092V81.7812Z" fill="#4C3F37"/>
<path d="M90.6398 84.6019H104.739V98.7002H90.6398V84.6019ZM87.819 81.7812V101.521H107.559V81.7812H87.819Z" fill="#4C3F37"/>
<path d="M51.1524 84.6007H48.3329V87.4201H51.1524V84.6007Z" fill="#4C3F37"/>
<path d="M53.9718 81.7812V87.4201H56.7925V81.7812H53.9718Z" fill="#4C3F37"/>
<path d="M93.4579 87.4201V95.8796H101.918V87.4201H93.4579Z" fill="#4C3F37"/>
<path d="M39.8761 95.8796V87.4201H31.4162V95.8796H39.8761Z" fill="#4C3F37"/>
<path d="M53.9732 98.6991V93.059H56.7927V90.2396H48.3329V93.059H51.1524V95.8784H48.3329V101.518H51.1524V98.6991H53.9732Z" fill="#4C3F37"/>
<path d="M28.5969 84.6019H42.697V98.7002H28.5969V84.6019ZM25.7773 81.7812V101.521H45.5165V81.7812H25.7773Z" fill="#4C3F37"/>
<path d="M59.6247 101.519H62.4442V98.6979H65.2637V95.8785H56.8051V98.6979H59.6247V101.519Z" fill="#4C3F37"/>
<path d="M59.6137 101.517H56.7929V98.6979L53.9732 98.6991L53.9734 101.517H51.1538V104.337H42.694V107.156H45.5135V109.976H42.694V112.795H51.1538V107.157H53.9734V104.338H56.7929V107.157H59.6124L59.6137 101.517Z" fill="#4C3F37"/>
<path d="M99.0969 104.351H96.2774V107.17H99.0969V104.351Z" fill="#4C3F37"/>
<path d="M104.736 104.351H101.916V107.17H104.736V104.351Z" fill="#4C3F37"/>
<path d="M25.7773 104.351V109.991H28.5969V107.17H37.0567V109.99H42.697V107.17H39.8775V104.351H25.7773Z" fill="#4C3F37"/>
<path d="M53.9718 112.795H56.7913V107.156H53.9718V112.795Z" fill="#4C3F37"/>
<path d="M62.4302 107.156H59.6107V109.976H62.4302V107.156Z" fill="#4C3F37"/>
<path d="M70.89 101.521H68.0705V98.7002H70.89V101.521ZM76.5303 81.7812V84.6019L73.7092 84.6019L73.7096 87.4213H79.3499V84.6019H82.1694V87.4213H79.3499V93.0614H76.5303V90.2407H70.89L70.8885 84.6019L68.0705 84.6019V87.4213H65.251V90.2407H62.4302V87.4213H59.6107V93.0614H70.89V95.8808H68.0705V98.7002H65.251V104.34H62.4302V107.16H65.2497V112.799H76.5291V109.98H82.1694V112.799H87.8097V109.98H84.9889V107.158H87.8085V104.339H84.9889V98.7002H82.1694V107.16H79.3499V104.339H73.7096V107.158H70.89V109.979H68.0705V107.158H70.89V104.339H73.7096V98.7002H76.5291V101.521H79.3487V95.8796H84.9889V93.0614H82.1694V90.2407H84.9889V81.7812H76.5303Z" fill="#4C3F37"/>
<path d="M96.2788 109.991L96.2774 107.17H93.4593V104.351H90.6385V107.17H87.819V109.99L96.2788 109.991Z" fill="#4C3F37"/>
<path d="M107.556 107.156H104.736V109.977H107.556V107.156Z" fill="#4C3F37"/>
<path d="M28.5968 109.976V112.795H37.0566V109.976H28.5968Z" fill="#4C3F37"/>
<path d="M82.1676 115.628V112.809H76.5273V115.628H82.1676Z" fill="#4C3F37"/>
<path d="M93.4581 115.628V112.809H87.819V115.628H93.4581Z" fill="#4C3F37"/>
<path d="M104.736 112.809H101.916V115.628H104.736V112.809Z" fill="#4C3F37"/>
<path d="M28.5969 115.628H25.7773V118.449H28.5969V115.628Z" fill="#4C3F37"/>
<path d="M34.2371 115.628H31.4163V118.448L28.5969 118.449L28.5968 124.088H31.4163V121.269H34.2371V115.628Z" fill="#4C3F37"/>
<path d="M45.515 115.628H37.0551V118.448H45.515V115.628Z" fill="#4C3F37"/>
<path d="M56.7927 118.448V115.628H48.3329V121.269H51.1524V118.448H56.7927Z" fill="#4C3F37"/>
<path d="M76.5413 115.628H73.7218V118.448H76.5413V115.628Z" fill="#4C3F37"/>
<path d="M101.918 118.449L101.916 115.628L99.0969 115.628V112.809H96.2774V118.449H101.918Z" fill="#4C3F37"/>
<path d="M96.2774 118.434H93.4579V121.253H96.2774V118.434Z" fill="#4C3F37"/>
<path d="M107.556 118.434H104.736V121.253H107.556V118.434Z" fill="#4C3F37"/>
<path d="M45.5135 121.267H42.694V124.087H45.5135V121.267Z" fill="#4C3F37"/>
<path d="M101.916 124.087V121.267H96.2774V124.087H101.916Z" fill="#4C3F37"/>
<path d="M34.2371 121.269L34.2372 126.907H25.7773V141.006H28.5969V129.727H37.0567V126.907H39.8762V124.087H37.0567V121.267L34.2371 121.269Z" fill="#4C3F37"/>
<path d="M51.1524 124.073H48.3329V126.893H51.1524V124.073Z" fill="#4C3F37"/>
<path d="M82.1802 124.073H79.3607V126.892H82.1802V124.073Z" fill="#4C3F37"/>
<path d="M104.736 124.073H101.916V126.892H104.736V124.073Z" fill="#4C3F37"/>
<path d="M45.5136 129.712V126.892H39.8746V129.712H45.5136Z" fill="#4C3F37"/>
<path d="M59.6122 129.727V124.087H62.4317V121.267L51.1524 121.269L51.1523 124.087H56.7926V126.906H53.9719V129.726L59.6122 129.727Z" fill="#4C3F37"/>
<path d="M96.2774 126.892V129.712H99.0969V135.352H101.916L101.916 126.892L96.2774 126.892Z" fill="#4C3F37"/>
<path d="M39.8746 129.712L37.0551 129.712V132.531H39.8747L39.8746 129.712Z" fill="#4C3F37"/>
<path d="M62.4302 129.712H59.6107V132.531H62.4302V129.712Z" fill="#4C3F37"/>
<path d="M107.556 129.712H104.736V132.531H107.556V129.712Z" fill="#4C3F37"/>
<path d="M37.0551 132.531L34.2357 132.531V135.351H37.0552L37.0551 132.531Z" fill="#4C3F37"/>
<path d="M45.515 135.351V132.531L39.8747 132.531L39.8747 135.351L37.0552 135.351L37.0551 138.17H42.6954V135.351H45.515Z" fill="#4C3F37"/>
<path d="M65.2635 132.531H62.444V135.351H65.2635V132.531Z" fill="#4C3F37"/>
<path d="M56.7927 132.531H53.9732V129.712H51.1524V132.531H48.3329V135.351H53.9732V138.17H56.7927V132.531Z" fill="#4C3F37"/>
<path d="M68.0705 138.171H62.4302V135.351H59.6107V140.991H70.89V143.81H65.251V149.45H68.0705V146.63H70.89V149.449H73.7096V143.81H79.3499V140.991H76.5303V138.171H70.89V132.531H68.0705V138.171Z" fill="#4C3F37"/>
<path d="M93.4488 157.925H96.2683V160.745H93.4488V157.925ZM84.9889 141.007H93.4488V149.466H84.9889V141.007ZM87.8085 126.907V124.088H90.6292V129.728H87.8097V132.547H90.6292V138.187H84.9889V126.907H87.8085ZM59.6107 112.809V118.449H65.251V126.909H62.4302V129.728H65.2497V132.547H68.0693V126.907H70.8888V124.088H79.3487V121.269H84.9889V126.907L82.1694 126.909V129.728H76.5303V126.907H73.7096V129.727H70.89V132.546H73.7096V135.366H76.5291V132.547H82.1694V143.826H79.3499V149.466H82.1694V152.283H90.6292V155.103H87.8097V157.922H90.6292V163.562H101.909V160.745H99.0866V157.925H101.906V160.744H104.726V155.105H107.545V146.646H101.909V149.465H99.0866V152.283H96.2695V155.103H93.4488V152.283H96.2695L96.2683 146.646H101.909V143.826H107.549V138.186H104.728V135.367H101.909V138.186H99.0866V141.006H96.2695V135.367H93.4488V132.547H96.2683V129.728H93.4488V126.907H96.2683V124.088H93.4488V121.269H90.6292V118.449H84.9889V115.628H82.1676L82.1694 118.448H76.5303V121.267H73.7096V118.449H70.89V121.269H68.0705V115.628H62.4302V112.809H59.6107Z" fill="#4C3F37"/>
<path d="M31.4162 138.184V141.003H37.0565V138.184H31.4162Z" fill="#4C3F37"/>
<path d="M42.694 138.184V141.003H48.3343V138.184H42.694Z" fill="#4C3F37"/>
<path d="M53.9719 138.184H51.1523V141.003H53.9719V138.184Z" fill="#4C3F37"/>
<path d="M56.7913 140.99H53.9718V143.809H56.7913V140.99Z" fill="#4C3F37"/>
<path d="M28.5969 146.628H42.697V160.728H28.5969V146.628ZM25.7773 143.809V163.547H45.5165V143.809H25.7773Z" fill="#4C3F37"/>
<path d="M90.6385 143.809H87.819V146.628H90.6385V143.809Z" fill="#4C3F37"/>
<path d="M59.6123 146.63H62.4318V143.809H56.7913L56.7927 146.628H53.9732L53.9718 143.809H51.1524V140.99H48.3329V146.63H51.1524V149.449H53.972V152.268H59.6123V146.63Z" fill="#4C3F37"/>
<path d="M31.4162 149.448V157.907H39.8761V149.448H31.4162Z" fill="#4C3F37"/>
<path d="M48.3329 149.448V163.546H56.7927V160.728H53.972V157.907H56.7927V155.087H53.972V152.268L51.1537 152.269L51.1524 149.449L48.3329 149.448Z" fill="#4C3F37"/>
<path d="M73.7096 149.449L73.7096 155.088H65.251V152.269L59.6123 152.268L59.6107 155.088H62.4302V157.907H59.6107V163.547H62.4302V160.728H65.2497V157.907H70.89V160.728H73.7096V157.907H76.5291V155.087H79.3487V149.448L73.7096 149.449Z" fill="#4C3F37"/>
<path d="M79.3607 155.101V163.56H82.1814V160.741H85.001V157.92H82.1814V155.101H79.3607Z" fill="#4C3F37"/>
<path d="M65.2496 160.726V163.545H70.8899V160.726H65.2496Z" fill="#4C3F37"/>
<path d="M76.5413 160.726H73.7218V163.545H76.5413V160.726Z" fill="#4C3F37"/>
<path d="M87.8191 160.726H84.9996V163.545H87.8191V160.726Z" fill="#4C3F37"/>
</svg>
