<svg width="24" height="24" viewBox="0 0 24 24" fill="none" xmlns="http://www.w3.org/2000/svg">
<path d="M12.5001 15.0936H15.5001C15.7762 15.0936 16.0001 15.3175 16.0001 15.5936C16.0001 15.8698 15.7762 16.0936 15.5001 16.0936H12.5001V19.0936C12.5001 19.3698 12.2762 19.5936 12.0001 19.5936C11.724 19.5936 11.5001 19.3698 11.5001 19.0936V16.0936H8.50009C8.22395 16.0936 8.00009 15.8698 8.00009 15.5936C8.00009 15.3175 8.22395 15.0936 8.50009 15.0936H11.5001V12.0936C11.5001 11.8175 11.724 11.5936 12.0001 11.5936C12.2762 11.5936 12.5001 11.8175 12.5001 12.0936V15.0936Z" fill="white"/>
<path fill-rule="evenodd" clip-rule="evenodd" d="M12.0138 2.00184C12.5123 1.98543 13.0086 2.07893 13.4649 2.27528C13.9213 2.47169 14.327 2.76639 14.6505 3.13661C15.4414 4.03609 15.8743 5.43265 15.9376 7.287C15.9581 7.88724 15.9402 8.48814 15.8849 9.08582H21.4142C21.5 9.08583 21.5854 9.10405 21.6632 9.13954C21.7409 9.17505 21.8094 9.22757 21.8644 9.29188C21.9193 9.35623 21.9588 9.4316 21.9806 9.51258C22.0022 9.59352 22.0059 9.67836 21.9903 9.76063L19.7618 21.5321C19.737 21.6633 19.6658 21.7827 19.5606 21.8681C19.4555 21.9532 19.3224 21.9999 19.1856 21.9999H4.9249C4.78912 21.9998 4.65759 21.9533 4.55283 21.869C4.44814 21.7848 4.37665 21.6678 4.35068 21.538L2.01084 9.76551C1.99447 9.6831 1.99655 9.59786 2.01767 9.51649C2.03891 9.43509 2.07916 9.35869 2.13388 9.29383C2.18877 9.22904 2.25808 9.17638 2.33603 9.14051C2.41407 9.10467 2.49977 9.08586 2.58603 9.08582H8.07236C8.02311 8.48613 8.01123 7.88357 8.03818 7.28211C8.12152 5.42954 8.56855 4.03381 9.36728 3.13563C9.69328 2.76595 10.1009 2.47251 10.5587 2.27625C11.0165 2.08006 11.5139 1.98613 12.0138 2.00184ZM5.4083 20.8583H18.6983L20.7101 10.2284H3.29599L5.4083 20.8583ZM12.0138 3.14247C11.6823 3.12791 11.3517 3.18739 11.047 3.31532C10.7422 3.44331 10.4709 3.63689 10.254 3.88172C9.05859 5.22532 9.15414 7.96651 9.25009 9.08582H14.7061C14.8145 7.97032 14.943 5.22133 13.7599 3.87782C13.5455 3.63395 13.2771 3.4407 12.9747 3.31336C12.6721 3.18607 12.3429 3.12726 12.0138 3.14247Z" fill="white"/>
</svg>
