<svg width="24" height="24" viewBox="0 0 24 24" fill="none" xmlns="http://www.w3.org/2000/svg">
<path fill-rule="evenodd" clip-rule="evenodd" d="M12 2C13.9778 2 15.9112 2.58673 17.5557 3.68555C19.2001 4.78434 20.4824 6.34567 21.2393 8.17285C21.9961 10.0001 22.1935 12.0114 21.8076 13.9512C21.4217 15.8909 20.4697 17.6728 19.0713 19.0713C17.6728 20.4697 15.8909 21.4217 13.9512 21.8076C12.0114 22.1935 10.0001 21.9961 8.17285 21.2393C6.34567 20.4824 4.78434 19.2001 3.68555 17.5557C2.58673 15.9112 2 13.9778 2 12C2 9.34784 3.05335 6.80407 4.92871 4.92871C6.80407 3.05335 9.34784 2 12 2ZM11.8604 4.22461C10.3708 4.25135 8.91902 4.70445 7.67871 5.5332C6.39982 6.38779 5.40311 7.60239 4.81445 9.02344C4.22577 10.4446 4.07196 12.0088 4.37207 13.5176C4.67221 15.0262 5.41233 16.4123 6.5 17.5C7.58768 18.5877 8.97379 19.3278 10.4824 19.6279C10.9384 19.7186 11.3997 19.7671 11.8604 19.7754V4.22461Z" fill="white"/>
</svg>
