<svg width="24" height="24" viewBox="0 0 24 24" fill="none" xmlns="http://www.w3.org/2000/svg">
<path fill-rule="evenodd" clip-rule="evenodd" d="M14 17.8C14 17.3582 14.3582 17 14.8 17H20.8C21.2418 17 21.6 17.3582 21.6 17.8C21.6 18.2418 21.2418 18.6 20.8 18.6H14.8C14.3582 18.6 14 18.2418 14 17.8Z" fill="white"/>
<path fill-rule="evenodd" clip-rule="evenodd" d="M17.8016 14C18.2434 14 18.6016 14.3582 18.6016 14.8V20.8C18.6016 21.2418 18.2434 21.6 17.8016 21.6C17.3597 21.6 17.0016 21.2418 17.0016 20.8V14.8C17.0016 14.3582 17.3597 14 17.8016 14Z" fill="white"/>
<path d="M12 2C17.5228 2 22 6.47715 22 12C22 12.0947 21.9986 12.1891 21.996 12.2832C21.9844 12.6908 21.6396 13 21.2318 13C20.7567 13 20.3928 12.5846 20.3996 12.1095C20.4001 12.0731 20.4004 12.0366 20.4004 12C20.4004 7.36081 16.6391 3.59961 12 3.59961C7.36081 3.59961 3.59961 7.36081 3.59961 12C3.59961 16.6391 7.36081 20.4004 12 20.4004C12.0367 20.4004 12.0734 20.4001 12.1101 20.3996C12.5849 20.3928 13 20.7564 13 21.2313C13 21.6388 12.691 21.9838 12.2837 21.9958C12.1895 21.9986 12.0949 22 12 22C6.47715 22 2 17.5228 2 12C2 6.47715 6.47715 2 12 2Z" fill="white"/>
<path d="M11.999 6.69922C12.4408 6.69922 12.7987 7.05729 12.7988 7.49902V11.1992H16.5C16.9416 11.1995 17.2998 11.5583 17.2998 12C17.2995 12.4414 16.9414 12.7995 16.5 12.7998H11.999C11.5574 12.7997 11.1995 12.4415 11.1992 12V7.49902C11.1993 7.05735 11.5574 6.69932 11.999 6.69922Z" fill="white"/>
</svg>
