<svg width="24" height="24" viewBox="0 0 24 24" fill="none" xmlns="http://www.w3.org/2000/svg">
<path fill-rule="evenodd" clip-rule="evenodd" d="M11.1386 2C16.1867 2 20.2791 6.09235 20.2791 11.1405C20.2791 13.3539 19.492 15.3832 18.183 16.9647L21.7504 20.531C22.0862 20.867 22.0863 21.4122 21.7504 21.7481C21.4145 22.084 20.8692 22.0839 20.5332 21.7481L16.9669 18.1807C15.3848 19.492 13.354 20.2811 11.1386 20.2811C6.0904 20.2811 1.99805 16.1887 1.99805 11.1405C1.99805 6.09235 6.0904 2 11.1386 2ZM11.1386 3.72015C7.04064 3.72015 3.7182 7.0426 3.7182 11.1405C3.7182 15.2385 7.04064 18.5609 11.1386 18.5609C13.0911 18.5609 14.866 17.8048 16.1909 16.5719C16.2311 16.4916 16.2845 16.4163 16.3515 16.3493C16.4185 16.2823 16.4939 16.2289 16.5742 16.1886C17.8047 14.8642 18.5589 13.0909 18.5589 11.1405C18.5589 7.0426 15.2365 3.72015 11.1386 3.72015Z" fill="white"/>
</svg>
