<svg width="24" height="24" viewBox="0 0 24 24" fill="none" xmlns="http://www.w3.org/2000/svg">
<path fill-rule="evenodd" clip-rule="evenodd" d="M20.1025 1.00488C20.6067 1.05621 21 1.48232 21 2L21.1025 2.00488C21.6067 2.05621 22 2.48232 22 3L22.1025 3.00488C22.6067 3.05621 23 3.48232 23 4V20L22.9951 20.1025C22.9472 20.573 22.573 20.9472 22.1025 20.9951L22 21L21.9951 21.1025C21.9472 21.573 21.573 21.9472 21.1025 21.9951L21 22L20.9951 22.1025C20.9472 22.573 20.573 22.9472 20.1025 22.9951L20 23H4C3.48232 23 3.05621 22.6067 3.00488 22.1025L3 22C2.48232 22 2.05621 21.6067 2.00488 21.1025L2 21C1.48232 21 1.05621 20.6067 1.00488 20.1025L1 20V4C1 3.44772 1.44772 3 2 3C2 2.44772 2.44772 2 3 2C3 1.44772 3.44772 1 4 1H20L20.1025 1.00488ZM3.25 22C3.25 22.4142 3.58579 22.75 4 22.75H20C20.4142 22.75 20.75 22.4142 20.75 22H3.25ZM3.25 21.75H9.78125C9.03164 21.5801 8.31388 21.3278 7.63867 21H3.25V21.75ZM8.24707 21C9.40239 21.4823 10.6698 21.75 12 21.75C13.3302 21.75 14.5976 21.4823 15.7529 21H8.24707ZM21 21.75C21.4142 21.75 21.75 21.4142 21.75 21H21V21.75ZM16.3613 21C15.6861 21.3278 14.9684 21.5801 14.2188 21.75H20.75V21H16.3613ZM2.25 21C2.25 21.4142 2.58579 21.75 3 21.75V21H2.25ZM2 3.25C1.58579 3.25 1.25 3.58579 1.25 4V20C1.25 20.4142 1.58579 20.75 2 20.75V3.25ZM3.25 20.75H7.1582C5.51707 19.8399 4.15992 18.482 3.25 16.8408V20.75ZM7.69922 3.25C5.76955 4.20027 4.20044 5.76867 3.25 7.69824V16.3008C4.2004 18.2307 5.76928 19.7996 7.69922 20.75H16.3008C18.2307 19.7996 19.7996 18.2307 20.75 16.3008V7.69824C19.7996 5.76867 18.2305 4.20027 16.3008 3.25H7.69922ZM21.75 14.2188C21.5801 14.9684 21.3278 15.6861 21 16.3613V20.75H21.75V14.2188ZM22 20.75C22.4142 20.75 22.75 20.4142 22.75 20V4C22.75 3.58579 22.4142 3.25 22 3.25V20.75ZM20.75 16.8408C19.8401 18.482 18.4829 19.8399 16.8418 20.75H20.75V16.8408ZM2.25 20.75H3V16.3613C2.67219 15.6861 2.41987 14.9684 2.25 14.2188V20.75ZM3 8.24707C2.51768 9.40239 2.25 10.6698 2.25 12C2.25 13.3299 2.5179 14.5969 3 15.752V8.24707ZM21 15.752C21.4821 14.5969 21.75 13.3299 21.75 12C21.75 10.6698 21.4823 9.40239 21 8.24707V15.752ZM2.25 9.78027C2.41993 9.03071 2.67214 8.31286 3 7.6377V3.25H2.25V9.78027ZM21 7.6377C21.3279 8.31286 21.5801 9.03071 21.75 9.78027V3.25H21V7.6377ZM3.25 7.1582C4.15992 5.51732 5.51732 4.15992 7.1582 3.25H3.25V7.1582ZM16.8418 3.25C18.4827 4.15992 19.8401 5.51732 20.75 7.1582V3.25H16.8418ZM3.25 3H7.63867C8.31388 2.67219 9.03164 2.41987 9.78125 2.25H3.25V3ZM12 2.25C10.6698 2.25 9.40239 2.51768 8.24707 3H15.7529C14.5976 2.51768 13.3302 2.25 12 2.25ZM21 3H21.75C21.75 2.58579 21.4142 2.25 21 2.25V3ZM14.2188 2.25C14.9684 2.41987 15.6861 2.67219 16.3613 3H20.75V2.25H14.2188ZM3 2.25C2.58579 2.25 2.25 2.58579 2.25 3H3V2.25ZM4 1.25C3.61183 1.25 3.29253 1.54488 3.25391 1.92285L3.25 2H20.75C20.75 1.58579 20.4142 1.25 20 1.25H4Z" fill="white"/>
</svg>
