<svg width="24" height="24" viewBox="0 0 24 24" fill="none" xmlns="http://www.w3.org/2000/svg">
<path fill-rule="evenodd" clip-rule="evenodd" d="M18.0824 4.7079C18.6346 4.7079 19.0824 5.26783 19.0825 5.95809V8.45745C19.0825 9.1478 18.6346 9.70764 18.0824 9.70764H17.083V8.45847C17.083 8.35031 17.0711 8.24525 17.0505 8.14516H17.8325V6.27038H6.33268V8.14516H7.00407C7.04379 7.54601 7.42088 7.06644 7.89762 7.00585L8.00016 6.99975H15.9998C16.5521 6.99975 17 7.55959 17 8.24994V18.2494C16.9999 18.9397 16.5521 19.4996 15.9998 19.4996H8.00016L7.89762 19.4935C7.39347 19.4295 7.00008 18.8965 7 18.2494V9.70764H6.08284L5.98031 9.70154C5.47611 9.63745 5.08268 9.1046 5.08268 8.45745V5.95809C5.08276 5.31102 5.47615 4.77807 5.98031 4.714L6.08284 4.7079H18.0824ZM8.25 17.9371H15.75V8.56223H8.25V17.9371Z" fill="white"/>
<path fill-rule="evenodd" clip-rule="evenodd" d="M20.9998 2C21.5521 2 22 2.55984 22 3.25019V20.7498C21.9998 21.3968 21.6065 21.9288 21.1024 21.9929L20.9998 22H3.00016L2.89762 21.9929C2.39355 21.9288 2.00015 21.3968 2 20.7498V3.25019C2 2.60305 2.39343 2.07019 2.89762 2.0061L3.00016 2H20.9998ZM3.25 20.4375H20.75V3.56248H3.25V20.4375Z" fill="white"/>
</svg>
