<svg width="24" height="24" viewBox="0 0 24 24" fill="none" xmlns="http://www.w3.org/2000/svg">
<path d="M12.0557 2.10938C8.54133 2.10944 5.45311 3.92421 3.68457 6.66309V3.58496C3.68451 3.12 3.30677 2.74316 2.8418 2.74316C2.37699 2.74337 2.00006 3.12012 2 3.58496V8.84766C2.00009 9.31247 2.37701 9.68925 2.8418 9.68945H8.10449C8.56945 9.68945 8.9462 9.31259 8.94629 8.84766C8.94629 8.38264 8.56951 8.00586 8.10449 8.00586H4.83984C6.25197 5.49327 8.95337 3.79304 12.0557 3.79297C16.6221 3.79297 20.3164 7.47346 20.3164 12.0029C20.3163 16.5323 16.622 20.2119 12.0557 20.2119C7.91194 20.2118 4.48463 17.1802 3.8877 13.2344C3.8181 12.7747 3.38936 12.4589 2.92969 12.5283C2.46992 12.5979 2.15313 13.0266 2.22266 13.4863C2.94333 18.2501 7.07373 21.8964 12.0557 21.8965C17.5432 21.8965 21.9999 17.4712 22 12.0029C22 6.53455 17.5432 2.10938 12.0557 2.10938Z" fill="white"/>
</svg>
