<svg width="24" height="24" viewBox="0 0 24 24" fill="none" xmlns="http://www.w3.org/2000/svg">
<path fill-rule="evenodd" clip-rule="evenodd" d="M14.0146 19.9789C14.0146 20.8026 13.0746 21.2731 12.4152 20.7794L5.29297 15.4458L3.01186 15.4729C2.45498 15.4795 2 15.0299 2 14.473V9.78614C2 9.23597 2.44442 8.78913 2.99458 8.78615L5.24609 8.77396L12.402 3.22711C13.0591 2.71777 14.0146 3.18609 14.0146 4.01747V19.9789ZM6.22461 10.1314L5.25488 10.4693L3.63574 10.4781V13.771L5.27539 13.7505L6.25098 14.0718L12.3789 18.6656V5.3599L6.22461 10.1314Z" fill="white"/>
<path d="M22 17.2154C22 17.6668 21.634 18.0327 21.1826 18.0327C20.7312 18.0327 20.3652 17.6668 20.3652 17.2154V6.70462C20.3652 6.2532 20.7312 5.88724 21.1826 5.88724C21.634 5.88724 22 6.2532 22 6.70462V17.2154Z" fill="white"/>
<path d="M18.3906 13.6914C18.3906 14.1431 18.0245 14.5093 17.5728 14.5093C17.1211 14.5093 16.7549 14.1431 16.7549 13.6914V9.67875C16.7549 9.22705 17.1211 8.86087 17.5728 8.86087C18.0245 8.86087 18.3906 9.22705 18.3906 9.67875V13.6914Z" fill="white"/>
</svg>
