<svg width="144" height="144" viewBox="0 0 144 144" fill="none" xmlns="http://www.w3.org/2000/svg">
<g clip-path="url(#clip0_6248_116267)">
<path d="M71.9941 40.2012C74.6447 40.2012 76.7923 42.3496 76.793 45V67.2012H99C101.65 67.2028 103.799 69.3559 103.799 72.0059C103.797 74.6545 101.649 76.8031 99 76.8047H71.9941C69.3447 76.8041 67.1969 74.6551 67.1953 72.0059V45C67.1959 42.35 69.3441 40.2018 71.9941 40.2012Z" fill="#1F1F1F"/>
<path fill-rule="evenodd" clip-rule="evenodd" d="M72 12C105.137 12 132 38.8629 132 72C132 105.137 105.137 132 72 132C38.8629 132 12 105.137 12 72C12 38.8629 38.8629 12 72 12ZM72 21.5977C44.1648 21.5977 21.5977 44.1648 21.5977 72C21.5977 99.8349 44.1649 122.402 72 122.402C99.8349 122.402 122.402 99.8349 122.402 72C122.402 44.1649 99.8349 21.5977 72 21.5977Z" fill="#1F1F1F"/>
</g>
<defs>
<clipPath id="clip0_6248_116267">
<rect width="144" height="144" fill="white"/>
</clipPath>
</defs>
</svg>
