<svg width="144" height="144" viewBox="0 0 144 144" fill="none" xmlns="http://www.w3.org/2000/svg">
<g clip-path="url(#clip0_6248_116263)">
<path fill-rule="evenodd" clip-rule="evenodd" d="M71.9914 13.8047C76.1216 13.8047 79.2909 17.4311 79.2922 21.6738C79.2922 22.196 79.2435 22.7111 79.1516 23.209C85.44 25.1368 91.1844 29.4362 95.6575 34.8691C101.812 42.3452 105.976 52.4307 105.976 62.8125V81.7148C105.976 99.5286 109.765 107.556 112.784 111.117C114.29 112.892 115.708 113.688 116.634 114.053C117.104 114.237 117.47 114.322 117.677 114.357C117.774 114.374 117.839 114.379 117.859 114.381H117.847L117.841 114.674L117.859 114.381H117.882L117.835 114.949L117.911 114.387L117.835 115.055L117.818 115.582C118.806 115.746 118.933 115.764 118.948 115.764L118.954 115.746C118.955 115.738 118.954 115.729 118.954 115.723C118.956 115.711 118.959 115.701 118.96 115.693V115.939C118.958 116.273 118.954 116.928 118.954 118.213C118.954 120.435 117.281 122.426 114.999 122.426H82.7786C82.1206 122.428 81.3618 122.951 80.9211 123.973C79.7035 126.795 77.0172 130.207 71.9914 130.207C66.9668 130.206 64.279 126.795 63.0618 123.973C62.6205 122.95 61.8627 122.427 61.2043 122.426H28.9836C26.7033 122.424 25.0286 120.434 25.0286 118.213C25.0285 116.925 25.0298 116.268 25.0286 115.934C25.028 115.768 25.0231 115.683 25.0227 115.641L25.0286 115.652V115.676C25.0377 115.677 25.1362 115.663 26.1653 115.576L26.1711 115.283L26.1008 114.381H26.1184L26.1653 114.375H26.1946C26.2171 114.372 26.2548 114.366 26.3059 114.357C26.4491 114.333 26.8837 114.235 27.3489 114.053C28.2749 113.689 29.6924 112.892 31.1985 111.117C34.218 107.557 38.0067 99.5309 38.0071 81.7148V62.8125C38.0071 52.4314 42.1715 42.345 48.3254 34.8691C52.7967 29.4379 58.5396 25.1381 64.8254 23.209C64.7337 22.7116 64.6907 22.1954 64.6907 21.6738C64.692 17.432 67.8625 13.8062 71.9914 13.8047ZM26.2239 115.576C26.2239 115.576 26.2296 115.635 26.2297 118.213L26.2825 118.822C26.5027 119.996 27.3534 120.919 28.427 121.16L28.9836 121.225H61.2043C62.5061 121.226 63.6074 122.205 64.1633 123.492C65.2804 126.083 67.6367 129.005 71.9914 129.006C72.5289 129.006 73.037 128.954 73.5149 128.871C73.0386 128.953 72.5326 129 71.9973 129C67.6417 128.999 65.2863 126.078 64.1692 123.486C63.6131 122.199 62.5127 121.219 61.2102 121.219H28.9895C27.4691 121.219 26.2356 119.869 26.2356 118.207C26.2355 115.629 26.2297 115.57 26.2297 115.57L26.2239 115.576ZM76.3625 116.672C76.0461 117.118 75.8414 117.667 75.8176 118.271V118.289L75.8059 118.441L75.718 119.104L75.5071 120.053C75.4144 120.391 75.2979 120.746 75.1496 121.09L74.9211 121.559C74.7944 121.797 74.6472 122.014 74.4875 122.215C74.7511 121.884 74.9737 121.506 75.1555 121.084C75.4521 120.396 75.6263 119.672 75.7239 119.098C75.7715 118.817 75.7976 118.585 75.8118 118.436C75.8185 118.364 75.8216 118.312 75.8235 118.283V118.266C75.8471 117.664 76.0489 117.116 76.3625 116.672ZM71.9914 30.1465C65.7666 30.1475 59.1737 33.9005 54.0149 40.166C48.8826 46.4008 45.5715 54.6628 45.5715 62.8125V81.7148C45.5712 98.4147 42.4308 108.406 38.4114 114.375H65.593C67.6983 114.376 69.2601 116.155 69.3547 118.195L69.3606 118.207C69.3615 118.222 69.3662 118.266 69.3723 118.33C69.3841 118.454 69.4069 118.653 69.4485 118.898C69.5359 119.414 69.688 120.043 69.9348 120.615C70.1755 121.173 70.4369 121.547 70.7258 121.781C70.989 121.993 71.3647 122.162 71.9914 122.162C72.6208 122.162 72.9993 121.994 73.2629 121.781C73.552 121.547 73.8072 121.173 74.0481 120.615C74.295 120.042 74.4469 119.414 74.5344 118.898C74.576 118.653 74.5988 118.454 74.6106 118.33C74.6167 118.266 74.6213 118.222 74.6223 118.207C74.7113 116.163 76.2818 114.377 78.3899 114.375H105.572C101.552 108.406 98.4117 98.4135 98.4114 81.7148V62.8125C98.4114 54.6622 95.1009 46.401 89.968 40.166C84.8086 33.9005 78.2166 30.1465 71.9914 30.1465ZM116.054 120.984C115.731 121.13 115.381 121.218 115.011 121.219H82.7903C82.5545 121.219 82.3253 121.258 82.1047 121.318C82.171 121.3 82.2362 121.278 82.3039 121.266L82.7786 121.225H114.999L115.556 121.16C115.729 121.121 115.895 121.057 116.054 120.984ZM104.857 110.777C105.826 112.686 106.868 114.268 107.95 115.57H107.962C106.878 114.267 105.827 112.688 104.857 110.777ZM31.5032 112.57C31.7072 112.358 31.9175 112.134 32.1243 111.891C32.2349 111.76 32.3348 111.615 32.4465 111.475C32.3326 111.618 32.2253 111.764 32.1125 111.896L31.5032 112.57ZM100.345 94.4531C99.8814 90.7337 99.6185 86.5085 99.6184 81.709V62.8066C99.6184 54.3465 96.1939 45.8224 90.9055 39.3984C85.6026 32.957 78.6972 28.9395 71.9973 28.9395C70.4043 28.9396 68.8017 29.1744 67.2102 29.6074C68.7995 29.1754 70.4007 28.9456 71.9914 28.9453C78.6902 28.9453 85.5912 32.9647 90.8938 39.4043C96.1823 45.8282 99.6125 54.3523 99.6125 62.8125V81.7148L99.6594 85.0898C99.7523 88.5219 99.9935 91.6327 100.345 94.4531ZM39.384 59.1387C39.2673 60.3567 39.2082 61.5829 39.2082 62.8125V81.7148L39.1614 84.9668C39.086 87.719 38.9101 90.2207 38.6633 92.4961C39.0043 89.3533 39.214 85.7783 39.2141 81.709V62.8066C39.2141 61.5792 39.2677 60.3546 39.384 59.1387ZM49.2512 35.6309L48.1496 37.0254C48.0409 37.1691 47.9405 37.3194 47.8332 37.4648C48.2961 36.837 48.767 36.2203 49.2571 35.625C49.2658 35.6144 49.2717 35.6005 49.2805 35.5898C49.2702 35.6024 49.2615 35.6183 49.2512 35.6309ZM66.2844 24.041H66.302C66.2736 23.9595 66.2455 23.8779 66.22 23.7949C66.245 23.8761 66.2568 23.9613 66.2844 24.041ZM65.9446 20.8887C65.9168 21.1465 65.8919 21.4079 65.8918 21.6738L65.9211 22.3594C65.9241 22.3909 65.9354 22.4217 65.9387 22.4531C65.9113 22.1965 65.8977 21.9327 65.8977 21.668C65.8978 21.4041 65.9172 21.1445 65.9446 20.8887Z" fill="#1F1F1F"/>
<path fill-rule="evenodd" clip-rule="evenodd" d="M12.9993 72.0059C13.4072 72.4092 13.9187 72.6913 14.4875 72.7852L15.0618 72.8145C15.4764 72.7918 15.8797 72.6717 16.2454 72.4688L16.8313 73.5176C16.4442 73.7328 16.0197 73.8859 15.5774 73.9629L15.1262 74.0098C13.1115 74.1156 11.4542 72.688 11.0012 70.8105L10.8782 69.9844C9.42921 40.0722 26.1195 26.4159 27.0032 25.7168L27.0325 25.6934C28.595 24.5446 30.6435 24.7195 32.0071 25.9629L32.5461 26.5664L32.9739 27.2754C33.7975 29.0121 33.4049 31.1918 31.8899 32.4727L31.8664 32.4902C31.7016 32.6245 17.714 44.0879 18.9465 69.5449L18.9348 70.1484C18.8192 71.5366 18.0541 72.8096 16.8371 73.5L16.2454 72.4688C15.8806 72.6705 15.481 72.7861 15.0676 72.8086C14.2757 72.8504 13.5413 72.5401 12.9993 72.0059ZM16.8899 71.9531C16.7974 72.0486 16.7018 72.1407 16.5969 72.2227L16.5032 72.2871L16.5911 72.2285C16.6976 72.1452 16.7962 72.0504 16.8899 71.9531ZM12.1555 61.7461C11.9845 64.3206 11.9398 67.0457 12.0793 69.9258C12.1078 70.5427 12.3179 71.1022 12.636 71.5664C12.317 71.1025 12.1138 70.5378 12.0852 69.9199C11.9458 67.0421 11.9849 64.3188 12.1555 61.7461ZM31.6731 30.9082C31.5192 31.1423 31.3429 31.3662 31.1223 31.5527C31.0782 31.5883 30.3516 32.1858 29.2532 33.3691C29.7325 32.853 30.1365 32.4444 30.4485 32.1504L31.1164 31.5586C31.3393 31.3702 31.5184 31.1451 31.6731 30.9082Z" fill="#1F1F1F"/>
<path fill-rule="evenodd" clip-rule="evenodd" d="M111.87 26.0098C113.057 24.8916 114.787 24.602 116.253 25.3066L116.962 25.7402L116.974 25.752C117.825 26.4245 133.524 39.2503 133.187 67.2305L133.105 69.9844C133 72.2518 131.16 74.1317 128.857 74.0098C128.25 73.9764 127.668 73.8044 127.152 73.5176C125.761 72.7288 124.957 71.169 125.042 69.5566C126.279 44.0548 112.209 32.616 112.128 32.5488L112.099 32.5254C110.351 31.0965 110.03 28.4808 111.325 26.6367L111.87 26.0098ZM126.847 71.6543C127.006 71.8704 127.187 72.0694 127.398 72.2344L127.738 72.4688C127.919 72.5691 128.11 72.6509 128.306 72.709L128.921 72.8145C129.106 72.8242 129.289 72.8063 129.466 72.7793C129.29 72.8057 129.11 72.8183 128.927 72.8086C128.512 72.786 128.11 72.6661 127.743 72.4629L127.404 72.2285C127.193 72.0637 127.006 71.8704 126.847 71.6543ZM111.888 30.1289C112.063 30.6903 112.383 31.2072 112.855 31.5938C113.003 31.7071 127.507 43.4788 126.238 69.6211C126.222 69.9077 126.256 70.1882 126.314 70.459C126.255 70.1868 126.228 69.9033 126.243 69.6152C127.511 43.5097 113.055 31.7337 112.866 31.5879C112.394 31.2018 112.063 30.6901 111.888 30.1289ZM112.527 27.0703C112.452 27.1535 112.37 27.2343 112.304 27.3281L112.005 27.8555C111.923 28.0395 111.863 28.2306 111.818 28.4238C111.907 28.0359 112.077 27.6621 112.316 27.3223C112.38 27.2313 112.455 27.1513 112.527 27.0703Z" fill="#1F1F1F"/>
<path fill-rule="evenodd" clip-rule="evenodd" d="M107.189 42.1816C108.506 40.3383 111.021 39.9043 112.831 41.3145L112.837 41.3203C113.331 41.711 121.176 48.2078 120.384 62.1973C120.258 64.4611 118.407 66.3242 116.107 66.1816C115.512 66.1469 114.939 65.9656 114.431 65.6777C113.034 64.8795 112.226 63.3075 112.322 61.6934L112.363 59.9473C112.263 51.6531 107.97 48.0944 107.956 48.082L107.364 47.4902C106.148 46.006 106.042 43.7924 107.189 42.1816ZM118.234 64.2129C117.691 64.7267 116.969 65.0228 116.189 64.9746C115.787 64.9519 115.388 64.8328 115.029 64.6289C114.048 64.0699 113.458 62.9436 113.529 61.7578C114.102 51.6494 108.864 47.2639 108.718 47.1445C108.245 46.7584 107.914 46.2419 107.739 45.6797C107.914 46.2437 108.233 46.7633 108.706 47.1504C108.763 47.1957 114.095 51.5667 113.517 61.7637C113.446 62.9488 114.043 64.0755 115.023 64.6348C115.381 64.8377 115.777 64.9572 116.177 64.9805C116.961 65.0296 117.689 64.7304 118.234 64.2129ZM108.823 42.2285C108.583 42.4062 108.354 42.6172 108.167 42.8789L107.863 43.4062C107.626 43.9326 107.55 44.5106 107.611 45.0703C107.528 44.3152 107.709 43.525 108.173 42.873C108.359 42.6132 108.585 42.4057 108.823 42.2285Z" fill="#1F1F1F"/>
<path fill-rule="evenodd" clip-rule="evenodd" d="M31.1516 41.2793C32.9617 39.8655 35.4776 40.307 36.7942 42.1523C38.1038 43.9933 37.7802 46.6177 36.0325 48.0469L36.0266 48.0527C35.8606 48.1942 31.1349 52.2767 31.6672 61.6758L31.6614 62.2734C31.569 63.4695 30.9906 64.5905 30.0559 65.3262L29.5579 65.6602C29.0484 65.9489 28.4733 66.1245 27.8762 66.1582L27.8821 66.1641C25.8674 66.2884 24.2015 64.8729 23.7336 63L23.6047 62.1738C22.8143 48.1898 30.638 41.6881 31.1457 41.2852L31.1516 41.2793ZM24.8938 57.334C24.7552 58.8103 24.7093 60.4008 24.8059 62.1094C24.8986 63.7845 26.2436 65.058 27.8059 64.9629C28.0065 64.9516 28.21 64.9158 28.4036 64.8574L28.9661 64.6172C29.081 64.5516 29.1905 64.475 29.2942 64.3945C29.1919 64.4733 29.0849 64.5469 28.9719 64.6113C28.613 64.815 28.2187 64.9341 27.8176 64.957C26.2531 65.0553 24.9045 63.7805 24.8118 62.1035C24.7153 60.3981 24.7558 58.8079 24.8938 57.334ZM31.8899 42.2285C31.795 42.304 31.2192 42.7793 30.4309 43.6758C31.1994 42.8012 31.771 42.3241 31.8899 42.2285Z" fill="#1F1F1F"/>
</g>
<defs>
<clipPath id="clip0_6248_116263">
<rect width="144" height="144" fill="white"/>
</clipPath>
</defs>
</svg>
