<svg width="24" height="24" viewBox="0 0 24 24" fill="none" xmlns="http://www.w3.org/2000/svg">
<path d="M14.4355 8.43359C14.748 8.12137 15.2541 8.12124 15.5664 8.43359C15.8786 8.74596 15.8786 9.25207 15.5664 9.56445L13.1309 12L15.5645 14.4336C15.8767 14.746 15.8768 15.2521 15.5645 15.5645C15.2521 15.8768 14.746 15.8767 14.4336 15.5645L12 13.1309L9.56641 15.5645C9.25404 15.8768 8.74798 15.8767 8.43555 15.5645C8.12313 15.252 8.12313 14.746 8.43555 14.4336L10.8691 12L8.43359 9.56445C8.12137 9.25202 8.12124 8.74595 8.43359 8.43359C8.74595 8.12124 9.25202 8.12137 9.56445 8.43359L12 10.8691L14.4355 8.43359Z" fill="white"/>
<path fill-rule="evenodd" clip-rule="evenodd" d="M12 2C17.5228 2 22 6.47715 22 12C22 17.5228 17.5228 22 12 22C6.47715 22 2 17.5228 2 12C2 6.47715 6.47715 2 12 2ZM12 3C7.02944 3 3 7.02944 3 12C3 16.9706 7.02944 21 12 21C16.9706 21 21 16.9706 21 12C21 7.02944 16.9706 3 12 3Z" fill="white"/>
</svg>
