<svg width="24" height="24" viewBox="0 0 24 24" fill="none" xmlns="http://www.w3.org/2000/svg">
<path d="M15.1664 22H8.61849C7.65756 22 6.83711 21.2008 6.70994 20.1413L5.1696 7.3129H4V6.0613H7.65549L8.21699 3.40179C8.39123 2.5765 9.04501 2 9.80691 2H13.7436C14.497 2 15.1492 2.56833 15.3294 3.38238L15.923 6.0613H20V7.3129H18.7064L17.0729 20.1576C17.0079 20.6687 16.7793 21.1367 16.429 21.4751C16.0787 21.8135 15.6304 22 15.1664 22ZM6.30454 7.3129L7.8249 19.9755C7.8777 20.4161 8.21906 20.7484 8.61849 20.7484H15.1664C15.5629 20.7484 15.9038 20.4192 15.9593 19.9824L17.5706 7.3129H6.30454ZM8.81086 6.0613H14.7647L14.2374 3.68199C14.1812 3.42861 13.9782 3.2516 13.7436 3.2516H9.80691C9.56978 3.2516 9.36616 3.43116 9.31176 3.68812L8.81086 6.0613ZM14.158 16.9808H13.0331V11.5658H14.158V16.9808ZM11.036 16.9808H9.91113V11.5658H11.036V16.9808Z" fill="white"/>
</svg>
