<svg width="24" height="24" viewBox="0 0 24 24" fill="none" xmlns="http://www.w3.org/2000/svg">
<path d="M10.999 3C11.4407 3.00001 11.7986 3.35817 11.7988 3.7998C11.7988 4.24163 11.4409 4.6006 10.999 4.60059L4.40039 4.59961V19.4023H10.999C11.4409 19.4023 11.7988 19.7613 11.7988 20.2031C11.7987 20.6448 11.4407 21.0029 10.999 21.0029H3.59961C3.15806 21.0027 2.79997 20.6447 2.7998 20.2031V3.7998C2.79986 3.58775 2.88426 3.38435 3.03418 3.23438C3.18412 3.08444 3.38758 3.0001 3.59961 3H10.999Z" fill="white"/>
<path d="M14.6221 6.44434C14.9283 6.1262 15.4346 6.11673 15.7529 6.42285L20.9531 11.4229C21.1098 11.5736 21.1982 11.7816 21.1982 11.999C21.1982 12.2166 21.11 12.4253 20.9531 12.5762L15.7529 17.5762C15.4345 17.8822 14.9283 17.872 14.6221 17.5537C14.3159 17.2353 14.3254 16.7291 14.6436 16.4229L18.4121 12.7988H8.7998C8.35807 12.7987 8 12.4408 8 11.999C8.00011 11.5574 8.35813 11.1993 8.7998 11.1992H18.4121L14.6436 7.57617C14.3251 7.26993 14.3159 6.7628 14.6221 6.44434Z" fill="white"/>
</svg>
