<svg width="144" height="144" viewBox="0 0 144 144" fill="none" xmlns="http://www.w3.org/2000/svg">
<g clip-path="url(#clip0_6248_116246)">
<path d="M18.2319 71.9987C20.9928 71.9987 23.2038 74.2432 23.485 76.9897C25.9994 101.55 46.8674 120.755 72.2869 120.756C90.705 120.756 106.741 110.663 115.129 95.7485H95.7497C92.9888 95.7478 90.7508 93.5106 90.7508 90.7495C90.7518 87.9892 92.9894 85.7512 95.7497 85.7505H127.001C129.762 85.7505 131.999 87.9888 132 90.7495V122.001C132 124.762 129.763 127 127.001 127C124.24 126.999 122.002 124.762 122.002 122.001V103.708C111.5 119.975 93.1587 130.754 72.2869 130.754C41.3878 130.753 15.993 107.127 13.4434 76.9957C13.2107 74.2447 15.4711 71.9987 18.2319 71.9987Z" fill="#1F1F1F"/>
<path d="M71.7131 13.25C102.608 13.2502 128 36.8698 130.555 66.9946C130.789 69.746 128.528 71.9926 125.767 71.9926C123.006 71.9926 120.796 69.7489 120.514 67.0029C117.994 42.4481 97.1288 23.2482 71.7131 23.248C53.295 23.248 37.2591 33.341 28.8708 48.2551H48.2503C51.0112 48.2557 53.2492 50.4929 53.2492 53.2541C53.2482 56.0144 51.0106 58.2524 48.2503 58.2531H16.999C14.2381 58.2531 12.001 56.0148 12 53.2541V22.0028C12 19.2413 14.2374 17.0038 16.999 17.0038C19.76 17.0045 21.998 19.2417 21.998 22.0028V40.2958C32.5005 24.0289 50.8413 13.25 71.7131 13.25Z" fill="#1F1F1F"/>
</g>
<defs>
<clipPath id="clip0_6248_116246">
<rect width="144" height="144" fill="white"/>
</clipPath>
</defs>
</svg>
