<svg width="144" height="144" viewBox="0 0 144 144" fill="none" xmlns="http://www.w3.org/2000/svg">
<g clip-path="url(#clip0_6248_116271)">
<path d="M64.082 22.0017C67.5767 15.7651 76.4233 15.7651 79.918 22.0017L130.807 112.825C134.166 118.822 130.085 126.674 122.894 126.676H21.1058C13.9151 126.674 9.83371 118.822 13.193 112.825L64.082 22.0017ZM72 25.3252C71.6571 25.3252 71.3047 25.4813 71.0623 25.9138L20.1733 116.732C19.9208 117.182 19.9424 117.674 20.1733 118.086C20.4008 118.492 20.7349 118.674 21.1058 118.675H122.894C123.265 118.674 123.599 118.492 123.827 118.086C124.058 117.674 124.079 117.182 123.827 116.732L72.9377 25.9138C72.6953 25.4813 72.3429 25.3252 72 25.3252Z" fill="#1F1F1F"/>
<path d="M74.6671 96.0041C76.1401 96.0041 77.3343 97.1982 77.3343 98.6712V104.005C77.3343 105.478 76.1401 106.673 74.6671 106.673H69.3329C67.8599 106.673 66.6657 105.478 66.6657 104.005V98.6712C66.6657 97.1982 67.8599 96.0041 69.3329 96.0041H74.6671Z" fill="#1F1F1F"/>
<path d="M74.6671 53.33C76.1401 53.33 77.3343 54.5241 77.3343 55.9972V88.0027C77.3343 89.4757 76.1401 90.6698 74.6671 90.6698H69.3329C67.8599 90.6698 66.6657 89.4757 66.6657 88.0027V55.9972C66.6657 54.5241 67.8599 53.33 69.3329 53.33H74.6671Z" fill="#1F1F1F"/>
</g>
<defs>
<clipPath id="clip0_6248_116271">
<rect width="144" height="144" fill="white"/>
</clipPath>
</defs>
</svg>
