<svg width="24" height="24" viewBox="0 0 24 24" fill="none" xmlns="http://www.w3.org/2000/svg">
<path fill-rule="evenodd" clip-rule="evenodd" d="M11.9992 2.29688C12.6876 2.29688 13.2158 2.90127 13.216 3.6084C13.216 3.69542 13.2079 3.78128 13.1926 3.86426C14.2407 4.18555 15.1981 4.90213 15.9436 5.80762C16.9693 7.05362 17.6633 8.73455 17.6633 10.4648V13.6152C17.6634 16.5842 18.2948 17.9221 18.7981 18.5156C19.0489 18.8114 19.2853 18.9441 19.4397 19.0049C19.5179 19.0356 19.579 19.0498 19.6135 19.0557C19.6297 19.0584 19.6405 19.0593 19.6438 19.0596H19.6418L19.6408 19.1084L19.6438 19.0596H19.6477L19.6399 19.1543L19.6525 19.0605L19.6399 19.1719L19.6369 19.2598C19.8017 19.2871 19.8227 19.2901 19.8254 19.29L19.8264 19.2871C19.8266 19.2858 19.8263 19.2842 19.8264 19.2832C19.8266 19.2812 19.8272 19.2796 19.8274 19.2783V19.3193C19.8269 19.3749 19.8264 19.4841 19.8264 19.6982C19.8264 20.0686 19.5475 20.4004 19.1672 20.4004H13.7971C13.6874 20.4008 13.5609 20.4878 13.4875 20.6582C13.2846 21.1286 12.8369 21.6973 11.9992 21.6973C11.1618 21.6971 10.7138 21.1285 10.5109 20.6582C10.4374 20.4877 10.3111 20.4006 10.2014 20.4004H4.83126C4.4512 20.4002 4.17208 20.0684 4.17208 19.6982C4.17207 19.4836 4.17228 19.3741 4.17208 19.3184C4.17198 19.2908 4.17117 19.2766 4.1711 19.2695L4.17208 19.2715V19.2754C4.1736 19.2756 4.19002 19.2732 4.36153 19.2588L4.36251 19.21L4.35079 19.0596H4.35372L4.36153 19.0586H4.36641C4.37017 19.058 4.37646 19.0571 4.38497 19.0557C4.40884 19.0516 4.48127 19.0353 4.5588 19.0049C4.71313 18.9442 4.94938 18.8115 5.2004 18.5156C5.70365 17.9223 6.3351 16.5846 6.33516 13.6152V10.4648C6.33516 8.73465 7.02923 7.0536 8.05489 5.80762C8.80011 4.90241 9.75726 4.18577 10.8049 3.86426C10.7896 3.78136 10.7824 3.69533 10.7824 3.6084C10.7826 2.90142 11.3111 2.29713 11.9992 2.29688ZM4.3713 19.2588C4.3713 19.2588 4.37225 19.2686 4.37227 19.6982L4.38106 19.7998C4.41777 19.9954 4.55956 20.1492 4.73848 20.1895L4.83126 20.2002H10.2014C10.4183 20.2004 10.6019 20.3636 10.6945 20.5781C10.8807 21.01 11.2734 21.4969 11.9992 21.4971C12.0888 21.4971 12.1735 21.4884 12.2531 21.4746C12.1738 21.4883 12.0894 21.4961 12.0002 21.4961C11.2743 21.496 10.8817 21.009 10.6955 20.5771C10.6028 20.3625 10.4194 20.1993 10.2023 20.1992H4.83223C4.57883 20.1992 4.37325 19.9743 4.37325 19.6973C4.37323 19.2677 4.37227 19.2578 4.37227 19.2578L4.3713 19.2588ZM12.7277 19.4414C12.675 19.5157 12.6409 19.6073 12.6369 19.708V19.7109L12.635 19.7363L12.6203 19.8467L12.5852 20.0049C12.5697 20.0613 12.5503 20.1204 12.5256 20.1777L12.4875 20.2559C12.4664 20.2956 12.4419 20.3317 12.4152 20.3652C12.4592 20.3101 12.4963 20.247 12.5266 20.1768C12.576 20.0621 12.605 19.9414 12.6213 19.8457C12.6292 19.7989 12.6336 19.7602 12.6359 19.7354C12.6371 19.7234 12.6376 19.7148 12.6379 19.71V19.707C12.6418 19.6068 12.6755 19.5155 12.7277 19.4414ZM11.9992 5.02051C10.9618 5.02068 9.86294 5.64618 9.00313 6.69043C8.14775 7.72956 7.5959 9.10655 7.5959 10.4648V13.6152C7.59585 16.3985 7.07246 18.0638 6.40255 19.0586H10.9328C11.2837 19.0587 11.544 19.3553 11.5598 19.6953L11.5607 19.6973C11.5609 19.6997 11.5617 19.7071 11.5627 19.7178C11.5647 19.7384 11.5685 19.7715 11.5754 19.8125C11.59 19.8984 11.6153 20.0032 11.6565 20.0986C11.6966 20.1917 11.7401 20.2539 11.7883 20.293C11.8322 20.3283 11.8948 20.3564 11.9992 20.3564C12.1041 20.3564 12.1672 20.3284 12.2111 20.293C12.2593 20.2539 12.3019 20.1917 12.342 20.0986C12.3832 20.0032 12.4085 19.8984 12.4231 19.8125C12.43 19.7715 12.4338 19.7384 12.4357 19.7178C12.4368 19.7071 12.4375 19.6997 12.4377 19.6973C12.4525 19.3565 12.7143 19.059 13.0656 19.0586H17.5959C16.9261 18.0638 16.4026 16.3983 16.4025 13.6152V10.4648C16.4025 9.10647 15.8508 7.72959 14.9953 6.69043C14.1354 5.64617 13.0367 5.02051 11.9992 5.02051ZM19.343 20.1602C19.2892 20.1844 19.2309 20.1992 19.1691 20.1992H13.799C13.7597 20.1992 13.7215 20.2058 13.6848 20.2158C13.6958 20.2128 13.7067 20.2092 13.718 20.207L13.7971 20.2002H19.1672L19.26 20.1895C19.2888 20.183 19.3164 20.1722 19.343 20.1602ZM17.4768 18.459C17.6382 18.7771 17.8119 19.0407 17.9924 19.2578H17.9943C17.8136 19.0406 17.6385 18.7775 17.4768 18.459ZM5.25118 18.7578C5.28519 18.7224 5.32024 18.6851 5.35469 18.6445C5.37314 18.6228 5.38979 18.5987 5.4084 18.5752C5.38942 18.5992 5.37154 18.6233 5.35274 18.6455L5.25118 18.7578ZM16.7248 15.7383C16.6475 15.1184 16.6037 14.4142 16.6037 13.6143V10.4639C16.6037 9.05385 16.033 7.63315 15.1516 6.5625C14.2677 5.48892 13.1169 4.81934 12.0002 4.81934C11.7347 4.81936 11.4676 4.8585 11.2023 4.93066C11.4672 4.85867 11.7341 4.82035 11.9992 4.82031C13.1157 4.82031 14.2659 5.49021 15.1496 6.56348C16.031 7.63413 16.6027 9.05481 16.6027 10.4648V13.6152L16.6106 14.1777C16.626 14.7497 16.6662 15.2682 16.7248 15.7383ZM6.56465 9.85254C6.5452 10.0555 6.53536 10.2599 6.53536 10.4648V13.6152L6.52755 14.1572C6.51499 14.6159 6.48566 15.0329 6.44454 15.4121C6.50137 14.8883 6.53632 14.2925 6.53633 13.6143V10.4639C6.53633 10.2593 6.54526 10.0552 6.56465 9.85254ZM8.20919 5.93457L8.02559 6.16699C8.00747 6.19095 7.99073 6.21599 7.97286 6.24023C8.05 6.13559 8.12849 6.03281 8.21016 5.93359C8.21162 5.93182 8.21261 5.9295 8.21407 5.92773C8.21235 5.92982 8.21091 5.93248 8.20919 5.93457ZM11.0481 4.00293H11.051C11.0463 3.98935 11.0416 3.97575 11.0373 3.96191C11.0415 3.97544 11.0434 3.98964 11.0481 4.00293ZM10.9914 3.47754C10.9868 3.52051 10.9826 3.56408 10.9826 3.6084L10.9875 3.72266C10.988 3.72791 10.9899 3.73305 10.9904 3.73828C10.9859 3.6955 10.9836 3.65154 10.9836 3.60742C10.9836 3.56345 10.9869 3.52018 10.9914 3.47754Z" fill="white"/>
<path fill-rule="evenodd" clip-rule="evenodd" d="M2.16719 11.9971C2.23519 12.0643 2.32044 12.1113 2.41524 12.127L2.51094 12.1318C2.58005 12.1281 2.64727 12.108 2.70821 12.0742L2.80587 12.249C2.74135 12.2849 2.6706 12.3104 2.59688 12.3232L2.52169 12.3311C2.18591 12.3487 1.90968 12.1108 1.83419 11.7979L1.81368 11.6602C1.57219 6.6748 4.35391 4.39874 4.50118 4.28223L4.50606 4.27832C4.76649 4.08686 5.1079 4.116 5.33516 4.32324L5.42501 4.42383L5.4963 4.54199C5.63357 4.83145 5.56813 5.19473 5.31563 5.4082L5.31173 5.41113C5.28426 5.4335 2.95298 7.34408 3.1584 11.5869L3.15645 11.6875C3.13719 11.9189 3.00967 12.131 2.80684 12.2461L2.70821 12.0742C2.64741 12.1078 2.58082 12.1271 2.51192 12.1309C2.37994 12.1378 2.25753 12.0861 2.16719 11.9971ZM2.81563 11.9883C2.80022 12.0042 2.78428 12.0195 2.7668 12.0332L2.75118 12.0439L2.76583 12.0342C2.78359 12.0203 2.80002 12.0045 2.81563 11.9883ZM2.02657 10.2871C1.99806 10.7162 1.99062 11.1704 2.01387 11.6504C2.01863 11.7532 2.05364 11.8465 2.10665 11.9238C2.05348 11.8465 2.01961 11.7524 2.01485 11.6494C1.99162 11.1698 1.99813 10.7159 2.02657 10.2871ZM5.2795 5.14746C5.25384 5.18647 5.22446 5.2238 5.1877 5.25488C5.18035 5.26081 5.05925 5.3604 4.87618 5.55762C4.95607 5.47159 5.02341 5.4035 5.0754 5.35449L5.18673 5.25586C5.22387 5.22446 5.25372 5.18694 5.2795 5.14746Z" fill="white"/>
<path fill-rule="evenodd" clip-rule="evenodd" d="M18.6457 4.33105C18.8434 4.1447 19.1318 4.09643 19.3762 4.21387L19.4943 4.28613L19.4963 4.28809C19.6382 4.40018 22.2547 6.53782 22.1984 11.2012L22.1848 11.6602C22.1673 12.0381 21.8606 12.3514 21.4768 12.3311C21.3757 12.3255 21.2786 12.2968 21.1926 12.249C20.9608 12.1176 20.8267 11.8576 20.841 11.5889C21.0472 7.33856 18.7021 5.4321 18.6887 5.4209L18.6838 5.41699C18.3925 5.17885 18.339 4.74289 18.5549 4.43555L18.6457 4.33105ZM21.1418 11.9385C21.1683 11.9745 21.1984 12.0077 21.2336 12.0352L21.2902 12.0742C21.3204 12.0909 21.3524 12.1046 21.385 12.1143L21.4875 12.1318C21.5183 12.1335 21.5488 12.1305 21.5783 12.126C21.5491 12.1304 21.5191 12.1325 21.4885 12.1309C21.4193 12.1271 21.3523 12.1071 21.2912 12.0732L21.2346 12.0342C21.1994 12.0067 21.1683 11.9745 21.1418 11.9385ZM18.6486 5.01758C18.6778 5.11115 18.7311 5.19729 18.8098 5.26172C18.8345 5.2806 21.2519 7.24256 21.0402 11.5996C21.0377 11.6474 21.0433 11.6941 21.0529 11.7393C21.0432 11.6939 21.0387 11.6466 21.0412 11.5986C21.2526 7.2477 18.8431 5.28505 18.8117 5.26074C18.7329 5.19639 18.6778 5.11112 18.6486 5.01758ZM18.7551 4.50781C18.7427 4.52168 18.7291 4.53514 18.718 4.55078L18.6682 4.63867C18.6546 4.66935 18.6444 4.7012 18.6369 4.7334C18.6519 4.66875 18.6801 4.60644 18.7199 4.5498C18.7307 4.53465 18.7431 4.5213 18.7551 4.50781Z" fill="white"/>
<path fill-rule="evenodd" clip-rule="evenodd" d="M17.8654 7.02637C18.0849 6.71915 18.5042 6.64681 18.8059 6.88184L18.8068 6.88281C18.8891 6.94793 20.1967 8.03072 20.0647 10.3623C20.0436 10.7396 19.7352 11.0501 19.3518 11.0264C19.2526 11.0206 19.1571 10.9904 19.0725 10.9424C18.8396 10.8093 18.705 10.5473 18.7209 10.2783L18.7277 9.9873C18.7112 8.60494 17.9956 8.01182 17.9934 8.00977L17.8947 7.91113C17.692 7.66376 17.6743 7.29482 17.8654 7.02637ZM19.7063 10.6982C19.6157 10.7839 19.4955 10.8332 19.3654 10.8252C19.2984 10.8214 19.232 10.8016 19.1721 10.7676C19.0087 10.6744 18.9103 10.4867 18.9221 10.2891C19.0176 8.60432 18.1446 7.87341 18.1203 7.85352C18.0415 7.78916 17.9864 7.70308 17.9572 7.60938C17.9862 7.70338 18.0395 7.78998 18.1184 7.85449C18.1278 7.86205 19.0165 8.59055 18.9201 10.29C18.9084 10.4876 19.0079 10.6753 19.1711 10.7686C19.2308 10.8024 19.2968 10.8223 19.3635 10.8262C19.4942 10.8344 19.6155 10.7845 19.7063 10.6982ZM18.1379 7.03418C18.0978 7.06379 18.0597 7.09896 18.0285 7.14258L17.9777 7.23047C17.9383 7.31819 17.9257 7.41453 17.9357 7.50781C17.9219 7.38197 17.9521 7.25026 18.0295 7.1416C18.0605 7.09829 18.0981 7.06371 18.1379 7.03418Z" fill="white"/>
<path fill-rule="evenodd" clip-rule="evenodd" d="M5.19258 6.87598C5.49427 6.64034 5.91359 6.71393 6.13301 7.02148C6.35128 7.3283 6.29736 7.76571 6.00606 8.00391L6.00508 8.00488C5.97741 8.02846 5.18981 8.70888 5.27852 10.2754L5.27755 10.375C5.26216 10.5743 5.16576 10.7612 5.00997 10.8838L4.92696 10.9395C4.84205 10.9876 4.7462 11.0168 4.64669 11.0225L4.64766 11.0234C4.31188 11.0442 4.03423 10.8083 3.95626 10.4961L3.93477 10.3584C3.80303 8.02773 5.10698 6.94411 5.19161 6.87695L5.19258 6.87598ZM4.14962 9.55176C4.12652 9.7978 4.11886 10.0629 4.13497 10.3477C4.15041 10.6269 4.37458 10.8391 4.63497 10.8232C4.66839 10.8214 4.70232 10.8154 4.73458 10.8057L4.82833 10.7656C4.84748 10.7547 4.86573 10.7419 4.88301 10.7285C4.86598 10.7416 4.84813 10.7539 4.8293 10.7646C4.76948 10.7986 4.70377 10.8184 4.63692 10.8223C4.37616 10.8386 4.1514 10.6262 4.13594 10.3467C4.11987 10.0624 4.12662 9.79741 4.14962 9.55176ZM5.31563 7.03418C5.29982 7.04676 5.20385 7.12597 5.07247 7.27539C5.20056 7.12963 5.29582 7.05011 5.31563 7.03418Z" fill="white"/>
</svg>
