<svg width="24" height="24" viewBox="0 0 24 24" fill="none" xmlns="http://www.w3.org/2000/svg">
<path fill-rule="evenodd" clip-rule="evenodd" d="M10.4388 1.69882C11.2485 0.758589 12.5398 0.768351 13.3395 1.72075L21.7609 11.7506C22.0793 12.1298 22.0798 12.7458 21.7618 13.1256C21.4446 13.5047 20.9304 13.5052 20.6126 13.1268L19.8343 12.1999V18.5299C19.8343 19.8941 18.9087 21 17.7668 21H6.22586C5.08399 21 4.15832 19.8941 4.15832 18.5299V11.7015L3.38004 12.6053C3.05831 12.9789 2.54412 12.9706 2.23093 12.5868C1.91707 12.2022 1.92401 11.5863 2.24642 11.2119L10.4388 1.69882ZM5.71957 9.88858H5.78604V19.0583H18.2066V10.2613L11.8837 2.73072L5.71957 9.88858Z" fill="white"/>
</svg>
