<svg width="24" height="24" viewBox="0 0 24 24" fill="none" xmlns="http://www.w3.org/2000/svg">
<path fill-rule="evenodd" clip-rule="evenodd" d="M21 2.5C21.5523 2.5 22 2.94772 22 3.5V7.5C22 8.05228 21.5523 8.5 21 8.5H18V20.0127C17.9998 20.834 17.3113 21.4998 16.4619 21.5H7.53809C6.68869 21.4998 6.00016 20.834 6 20.0127V8.5H3C2.44772 8.5 2 8.05228 2 7.5V3.5C2 2.94772 2.44772 2.5 3 2.5H21ZM7.53809 5.39258C7.19849 5.39277 6.92301 5.65893 6.92285 5.9873V20.0127C6.92301 20.3411 7.19849 20.6072 7.53809 20.6074H12.6973V5.39258H7.53809ZM14.9307 20.6074H16.4619C16.8015 20.6072 17.077 20.3411 17.0771 20.0127V5.9873C17.077 5.65893 16.8015 5.39277 16.4619 5.39258H14.9307V20.6074ZM3 7.5H6V5.9873C6.00016 5.16598 6.68869 4.5002 7.53809 4.5H16.4619C17.3113 4.5002 17.9998 5.16598 18 5.9873V7.5H21V3.5H3V7.5Z" fill="white"/>
</svg>
