<svg width="24" height="24" viewBox="0 0 24 24" fill="none" xmlns="http://www.w3.org/2000/svg">
<path d="M11.999 6.7002C12.4408 6.7002 12.7987 7.05826 12.7988 7.5V11.2002H16.5C16.9416 11.2005 17.2998 11.5593 17.2998 12.001C17.2995 12.4424 16.9414 12.8005 16.5 12.8008H11.999C11.5574 12.8007 11.1995 12.4425 11.1992 12.001V7.5C11.1993 7.05833 11.5574 6.7003 11.999 6.7002Z" fill="white"/>
<path fill-rule="evenodd" clip-rule="evenodd" d="M12 2C17.5228 2 22 6.47715 22 12C22 17.5228 17.5228 22 12 22C6.47715 22 2 17.5228 2 12C2 6.47715 6.47715 2 12 2ZM12 3.59961C7.36081 3.59961 3.59961 7.36081 3.59961 12C3.59961 16.6391 7.36081 20.4004 12 20.4004C16.6391 20.4004 20.4004 16.6391 20.4004 12C20.4004 7.36081 16.6391 3.59961 12 3.59961Z" fill="white"/>
</svg>
